<svg xmlns="http://www.w3.org/2000/svg" viewBox="0 0 120 120" fill="none">
  <circle cx="60" cy="60" r="56" fill="#EFF6FF"/>
  <circle cx="60" cy="60" r="56" stroke="#BFDBFE" stroke-width="1.5"/>
  <!-- North America -->
  <path d="M40 20l8-1 7 3 5 5 3 7-1 6 2 5-2 4-4 2-2 3" fill="none" stroke="#3B82F6" stroke-width="0"/>
  <path d="M42 20l7-1 6 2 5 5 4 6 1 7-2 5-5 3-2 3-4 1-3-2-4 1-4-3-3-5 1-6-3-5 1-6 3-4z" fill="#3B82F6" opacity="0.4" stroke="#2563EB" stroke-width="0.5"/>
  <!-- Central America bridge -->
  <path d="M54 56l3-1 2 4 1 6-1 4-3 1-2-4-1-6z" fill="#2563EB" opacity="0.35"/>
  <!-- South America -->
  <path d="M48 70l6-2 5 2 4 5 2 7-1 6-3 5-5 3-5-1-4 1-4-4-2-6 1-6 3-5z" fill="#3B82F6" opacity="0.4" stroke="#2563EB" stroke-width="0.5"/>
  <!-- Caribbean islands -->
  <circle cx="68" cy="48" r="2" fill="#1D4ED8" opacity="0.35"/>
  <circle cx="72" cy="52" r="1.5" fill="#1D4ED8" opacity="0.3"/>
</svg>
