<svg xmlns="http://www.w3.org/2000/svg" viewBox="0 0 120 120" fill="none">
  <circle cx="60" cy="60" r="56" fill="#FFF7ED"/>
  <circle cx="60" cy="60" r="56" stroke="#FED7AA" stroke-width="1.5"/>
  <!-- Arabian Peninsula shape -->
  <path d="M42 32l6-2 5 1 4 4 6 2 4 5 1 6-2 6 3 5-1 6-4 5-6 3-5-1-4 3-6-1-4-4 1-6-3-5 1-7 4-5z" fill="#F59E0B" opacity="0.35" stroke="#D97706" stroke-width="0.5"/>
  <!-- Arabian Peninsula inner -->
  <path d="M52 42l4-1 4 3 2 6-1 5-3 4-5 1-3-3-1-6 2-5z" fill="#D97706" opacity="0.3"/>
  <!-- Nile/Egypt area -->
  <path d="M38 45l2-1 2 2 1 6-1 4-2 1-2-3v-6z" fill="#B45309" opacity="0.35"/>
  <!-- Persian Gulf -->
  <path d="M68 50c2 0 3 2 3 4s-1 4-3 4-3-2-3-4 1-4 3-4z" fill="#FCD34D" opacity="0.3"/>
</svg>
