<svg xmlns="http://www.w3.org/2000/svg" viewBox="0 0 120 120" fill="none">
  <circle cx="60" cy="60" r="56" fill="#ECFDF5"/>
  <circle cx="60" cy="60" r="56" stroke="#A7F3D0" stroke-width="1.5"/>
  <!-- Simplified Asia silhouette: large landmass, India peninsula, Southeast Asia -->
  <path d="M30 28l8-2 7 2 6 5 8 1 6 4 4 7 2 8-1 7 3 6-2 7-5 5-4 6-7 2-5 4-8-1-6-4-4 5-6 1-5-4-4-6 1-7-4-5 1-8 3-6 5-4 2-7z" fill="#34D399" opacity="0.4" stroke="#10B981" stroke-width="0.5"/>
  <!-- India subcontinent -->
  <path d="M48 62l3-1 3 3 1 5-1 4-3 2-3-2-1-5z" fill="#10B981" opacity="0.35"/>
  <!-- Japan/Korea islands -->
  <path d="M82 38l2 1 1 4-1 3-2 1-1-3z" fill="#059669" opacity="0.4"/>
  <circle cx="84" cy="48" r="2" fill="#059669" opacity="0.35"/>
  <!-- Southeast Asia islands -->
  <circle cx="72" cy="72" r="3" fill="#10B981" opacity="0.3"/>
  <circle cx="78" cy="76" r="2.5" fill="#10B981" opacity="0.25"/>
</svg>
